<?xml version="1.0" encoding="UTF-8"?>
<svg width="187px" height="33px" viewBox="0 0 187 33" version="1.1" xmlns="http://www.w3.org/2000/svg" xmlns:xlink="http://www.w3.org/1999/xlink">
    <!-- Generator: Sketch 51.3 (57544) - http://www.bohemiancoding.com/sketch -->
    <title>Group 19</title>
    <desc>Created with Sketch.</desc>
    <defs>
        <linearGradient x1="100%" y1="0%" x2="2.13827673%" y2="93.9917137%" id="linearGradient-1">
            <stop stop-color="#F770BB" offset="0%"></stop>
            <stop stop-color="#F8CD87" offset="100%"></stop>
        </linearGradient>
        <linearGradient x1="0%" y1="100%" x2="100%" y2="0%" id="linearGradient-2">
            <stop stop-color="#8C99F9" offset="0%"></stop>
            <stop stop-color="#7DDDE5" offset="100%"></stop>
        </linearGradient>
        <linearGradient x1="0%" y1="100%" x2="100%" y2="0%" id="linearGradient-3">
            <stop stop-color="#AEAAF1" offset="0%"></stop>
            <stop stop-color="#6E98EE" offset="100%"></stop>
        </linearGradient>
        <linearGradient x1="3.5817179%" y1="-7.79004218%" x2="100%" y2="100%" id="linearGradient-4">
            <stop stop-color="#A7EBBA" offset="0%"></stop>
            <stop stop-color="#7DDDE5" offset="100%"></stop>
        </linearGradient>
        <path d="M12.871177,5.91457286 C12.2582608,5.43550849 11.6453537,5.08082192 11.0324374,4.85050251 C10.4195212,4.6201831 9.82576747,4.50502513 9.25115848,4.50502513 C8.52332043,4.50502513 7.92956671,4.67085261 7.46987952,5.00251256 C7.01019233,5.33417251 6.78035218,5.76716651 6.78035218,6.30150754 C6.78035218,6.67001859 6.89527225,6.97403565 7.12511585,7.21356784 C7.35495944,7.45310003 7.65662464,7.66038438 8.03012048,7.83542714 C8.40361633,8.01046989 8.82498993,8.16247842 9.29425394,8.29145729 C9.76351795,8.42043616 10.2279866,8.55862573 10.6876738,8.70603015 C12.5264225,9.29564784 13.8719451,10.0833284 14.7242817,11.0690955 C15.5766184,12.0548626 16.0027804,13.3400256 16.0027804,14.9246231 C16.0027804,15.9933052 15.8160352,16.9606322 15.4425394,17.8266332 C15.0690435,18.6926341 14.5231732,19.4342515 13.804912,20.0515075 C13.0866507,20.6687636 12.2055968,21.1478207 11.1617238,21.4886935 C10.1178508,21.8295662 8.93513172,22 7.61353105,22 C4.87456153,22 2.33674323,21.2169258 0,19.6507538 L2.41334569,15.2839196 C3.25610554,16.0025162 4.08927608,16.5368492 4.9128823,16.8869347 C5.73648852,17.2370202 6.55050571,17.4120603 7.35495829,17.4120603 C8.27433268,17.4120603 8.95906479,17.2093823 9.40917516,16.8040201 C9.85928554,16.3986579 10.0843373,15.938026 10.0843373,15.4221106 C10.0843373,15.1088762 10.0268773,14.8371033 9.91195551,14.6067839 C9.79703372,14.3764645 9.60550026,14.1645738 9.3373494,13.9711055 C9.06919854,13.7776372 8.71964998,13.5979908 8.28869323,13.4321608 C7.85773649,13.2663308 7.33580782,13.0820781 6.72289157,12.879397 C5.99505351,12.6582904 5.28159139,12.4141554 4.58248378,12.1469849 C3.88337618,11.8798144 3.26089244,11.5251278 2.7150139,11.0829146 C2.16913536,10.6407013 1.72860841,10.0833367 1.39341983,9.41080402 C1.05823126,8.73827134 0.890639481,7.88610231 0.890639481,6.85427136 C0.890639481,5.8224404 1.06780793,4.88735763 1.42215014,4.04899497 C1.77649235,3.21063232 2.27447934,2.49204655 2.91612604,1.89321608 C3.55777275,1.29438562 4.34305992,0.829147387 5.27201112,0.497487437 C6.20096232,0.165827487 7.24003133,0 8.3892493,0 C9.46185275,0 10.5823235,0.142795892 11.7506951,0.42839196 C12.9190667,0.713988028 14.0395374,1.13316307 15.1121409,1.68592965 L12.871177,5.91457286 Z M28.6153846,5.16834171 L28.6153846,21.419598 L22.9842447,21.419598 L22.9842447,5.16834171 L18.3586654,5.16834171 L18.3586654,0.58040201 L33.2409639,0.58040201 L33.2409639,5.16834171 L28.6153846,5.16834171 Z M42.0898981,0.58040201 L42.0898981,11.9120603 C42.0898981,12.5201035 42.1138397,13.1419566 42.1617238,13.7776382 C42.2096079,14.4133198 42.353258,14.9891096 42.5926784,15.5050251 C42.8320988,16.0209406 43.2103774,16.4401156 43.7275255,16.7625628 C44.2446736,17.08501 44.9725007,17.2462312 45.9110287,17.2462312 C46.8495567,17.2462312 47.5725955,17.08501 48.0801668,16.7625628 C48.5877381,16.4401156 48.9660167,16.0209406 49.2150139,15.5050251 C49.4640111,14.9891096 49.6124496,14.4133198 49.6603336,13.7776382 C49.7082177,13.1419566 49.7321594,12.5201035 49.7321594,11.9120603 L49.7321594,0.58040201 L55.334569,0.58040201 L55.334569,12.6582915 C55.334569,15.9011887 54.5636469,18.2688368 53.0217794,19.7613065 C51.479912,21.2537763 49.1096854,22 45.9110287,22 C42.712372,22 40.3373572,21.2537763 38.7859129,19.7613065 C37.2344686,18.2688368 36.4587581,15.9011887 36.4587581,12.6582915 L36.4587581,0.58040201 L42.0898981,0.58040201 Z M66.223355,16.8316583 L67.5162187,16.8316583 C68.493054,16.8316583 69.3645312,16.6842561 70.1306766,16.3894472 C70.8968219,16.0946384 71.5432473,15.6892823 72.0699722,15.1733668 C72.5966971,14.6574514 72.9989174,14.0448109 73.276645,13.3354271 C73.5543727,12.6260434 73.6932345,11.8475754 73.6932345,11 C73.6932345,10.1708501 73.5495844,9.39698852 73.2622799,8.67839196 C72.9749754,7.9597954 72.5679668,7.34254864 72.0412419,6.82663317 C71.514517,6.31071769 70.8680916,5.90536161 70.1019462,5.61055276 C69.3358009,5.31574392 68.4739004,5.16834171 67.5162187,5.16834171 L66.223355,5.16834171 L66.223355,16.8316583 Z M60.592215,0.58040201 L68.9240037,0.58040201 C70.3988334,0.58040201 71.7826627,0.865993794 73.0755329,1.43718593 C74.3684031,2.00837807 75.4984505,2.76842072 76.465709,3.71733668 C77.4329675,4.66625265 78.1943129,5.77176923 78.7497683,7.0339196 C79.3052237,8.29606996 79.5829472,9.61808354 79.5829472,11 C79.5829472,12.3634909 79.310012,13.6762918 78.7641335,14.9384422 C78.2182549,16.2005926 77.4616978,17.3107155 76.4944393,18.2688442 C75.5271808,19.226973 74.3971334,19.9916219 73.1042632,20.5628141 C71.811393,21.1340062 70.4179871,21.419598 68.9240037,21.419598 L60.592215,21.419598 L60.592215,0.58040201 Z M96.2177943,5.16834171 L89.523633,5.16834171 L89.523633,8.65075377 L95.8443003,8.65075377 L95.8443003,13.2386935 L89.523633,13.2386935 L89.523633,16.8316583 L96.2177943,16.8316583 L96.2177943,21.419598 L83.892493,21.419598 L83.892493,0.58040201 L96.2177943,0.58040201 L96.2177943,5.16834171 Z M105.899907,11 C105.899907,11.8291499 106.062711,12.5937988 106.388323,13.2939698 C106.713934,13.9941409 107.154461,14.602175 107.709917,15.1180905 C108.265372,15.6340059 108.911797,16.0347557 109.649212,16.3203518 C110.386627,16.6059478 111.167126,16.7487437 111.990732,16.7487437 C112.814338,16.7487437 113.594837,16.6059478 114.332252,16.3203518 C115.069667,16.0347557 115.720881,15.6340059 116.285913,15.1180905 C116.850945,14.602175 117.29626,13.9941409 117.621872,13.2939698 C117.947484,12.5937988 118.110287,11.8291499 118.110287,11 C118.110287,10.1708501 117.947484,9.40620116 117.621872,8.70603015 C117.29626,8.00585915 116.850945,7.39782503 116.285913,6.88190955 C115.720881,6.36599407 115.069667,5.96524431 114.332252,5.67964824 C113.594837,5.39405217 112.814338,5.25125628 111.990732,5.25125628 C111.167126,5.25125628 110.386627,5.39405217 109.649212,5.67964824 C108.911797,5.96524431 108.265372,6.36599407 107.709917,6.88190955 C107.154461,7.39782503 106.713934,8.00585915 106.388323,8.70603015 C106.062711,9.40620116 105.899907,10.1708501 105.899907,11 Z M100.010195,11 C100.010195,9.45225357 100.307071,8.01047569 100.900834,6.67462312 C101.494597,5.33877054 102.318191,4.17337181 103.37164,3.17839196 C104.42509,2.18341211 105.684423,1.40494418 107.149676,0.842964824 C108.614929,0.280985465 110.228598,0 111.990732,0 C113.733713,0 115.342594,0.280985465 116.817424,0.842964824 C118.292253,1.40494418 119.561162,2.18341211 120.624189,3.17839196 C121.687216,4.17337181 122.515598,5.33877054 123.109361,6.67462312 C123.703123,8.01047569 124,9.45225357 124,11 C124,12.5477464 123.703123,13.9895243 123.109361,15.3253769 C122.515598,16.6612295 121.687216,17.8266282 120.624189,18.821608 C119.561162,19.8165879 118.292253,20.5950558 116.817424,21.1570352 C115.342594,21.7190145 113.733713,22 111.990732,22 C110.228598,22 108.614929,21.7190145 107.149676,21.1570352 C105.684423,20.5950558 104.42509,19.8165879 103.37164,18.821608 C102.318191,17.8266282 101.494597,16.6612295 100.900834,15.3253769 C100.307071,13.9895243 100.010195,12.5477464 100.010195,11 Z" id="path-5"></path>
    </defs>
    <g id="COMPLETE" stroke="none" stroke-width="1" fill="none" fill-rule="evenodd">
        <g id="Homepage" transform="translate(-12.000000, -11.000000)">
            <g id="Group-19" transform="translate(15.000000, 9.000000)">
                <g id="Group-14" transform="translate(0.000000, 5.000000)" stroke-linecap="round">
                    <path d="M15.5701083,26.2734049 L0.243341817,26.2734049 C0.156356969,26.2734049 0.085841817,26.2028898 0.085841817,26.1159049 C0.085841817,26.0871421 0.0937181943,26.0589284 0.108616461,26.0343248 L15.3876665,0.801785895 C15.432722,0.727379135 15.5295653,0.703585236 15.6039721,0.748640734 C15.6253827,0.761605506 15.6433951,0.779486472 15.6565163,0.8008016 L31.3369779,26.2734049" id="Path-58" stroke="url(#linearGradient-1)" stroke-width="5.5125"></path>
                    <path d="M29.7074057,6.69703953 L41.7366441,26.1856802 C41.767103,26.2350267 41.8317981,26.2503383 41.8811446,26.2198794 C41.9138345,26.1997018 41.9328958,26.1632828 41.9308441,26.1249219 L41.722456,22.2285152" id="Path-61" stroke="url(#linearGradient-2)" stroke-width="5.25"></path>
                    <path d="M41.8823529,11.9259259 L41.8823529,26.4444444" id="Path-61" stroke="url(#linearGradient-3)" stroke-width="5.25"></path>
                    <path d="M41.8823529,11.9259259 L51.6662583,26.1227379" id="Path-61" stroke="url(#linearGradient-4)" stroke-width="5.25"></path>
                </g>
                <g id="Group" transform="translate(60.000000, 12.000000)">
                    <mask id="mask-6" fill="white">
                        <use xlink:href="#path-5"></use>
                    </mask>
                    <use id="STUDEO" fill="#3F424D" xlink:href="#path-5"></use>
                    <rect id="Rectangle" fill="#3F424D" mask="url(#mask-6)" x="-11" y="-10" width="146" height="50"></rect>
                </g>
                <text id="BETA" font-family="ArialRoundedMTBold, Arial Rounded MT Bold" font-size="9" font-weight="normal" fill="#848F99">
                    <tspan x="159.5" y="9">BETA</tspan>
                </text>
            </g>
        </g>
    </g>
</svg>